<?xml version="1.0" encoding="iso-8859-1"?>
<!-- Generator: Adobe Illustrator 22.0.1, SVG Export Plug-In . SVG Version: 6.00 Build 0)  -->
<svg version="1.1" id="_x35_0" xmlns="http://www.w3.org/2000/svg" xmlns:xlink="http://www.w3.org/1999/xlink" x="0px" y="0px"
	 viewBox="0 0 512 512" style="enable-background:new 0 0 512 512;" xml:space="preserve">
<linearGradient id="SVGID_1_" gradientUnits="userSpaceOnUse" x1="36.9181" y1="33.3499" x2="473.2545" y2="476.0267">
	<stop  offset="0" style="stop-color:#FEF050"/>
	<stop  offset="0.0348" style="stop-color:#FAE73D"/>
	<stop  offset="0.0935" style="stop-color:#F5DB22"/>
	<stop  offset="0.1536" style="stop-color:#F2D20F"/>
	<stop  offset="0.2152" style="stop-color:#F0CD04"/>
	<stop  offset="0.2809" style="stop-color:#EFCB00"/>
	<stop  offset="0.6685" style="stop-color:#D99544"/>
	<stop  offset="0.8876" style="stop-color:#CD6F3C"/>
	<stop  offset="1" style="stop-color:#C34435"/>
</linearGradient>
<path style="fill:url(#SVGID_1_);" d="M477.019,293.441c-0.977-0.977-2.559-0.977-3.535,0s-0.977,2.56,0,3.535l9.627,9.626
	c3.183,3.184,3.187,8.359,0.008,11.538l-21.938,21.938c-1.538,1.538-3.584,2.385-5.763,2.385c-0.001,0-0.002,0-0.003,0
	c-2.181-0.001-4.23-0.851-5.772-2.393l-33.138-33.138c-0.001-0.001-0.003-0.003-0.005-0.005l-44.417-44.417
	c-1.538-1.538-2.386-3.586-2.386-5.765c0-2.18,0.848-4.228,2.386-5.766l10.968-10.969l9.824-9.823
	c0.001-0.001,0.003-0.003,0.004-0.005l1.14-1.14c3.18-3.178,8.352-3.178,11.531,0l7.415,7.415c0.001,0.001,0.003,0.003,0.005,0.005
	l21.816,21.816c0.005,0.005,0.01,0.01,0.015,0.015l18.568,18.568c0.977,0.977,2.559,0.977,3.535,0s0.977-2.559,0-3.535
	l-17.844-17.844v-129.65c0-5.646-4.598-10.24-10.25-10.24h-66.246c-0.462-0.487-0.913-0.982-1.39-1.459
	c-13.89-13.891-32.356-21.54-52-21.54c-19.643,0-38.11,7.649-52,21.54c-0.477,0.477-0.926,0.972-1.387,1.459H83.19
	c-5.652,0-10.25,4.594-10.25,10.24V273.41c0,1.381,1.119,2.5,2.5,2.5s2.5-1.119,2.5-2.5V125.831c0-2.89,2.355-5.24,5.25-5.24
	h168.261c-3.058,3.871-5.672,7.978-7.84,12.257h-63.405c-1.381,0-2.5,1.119-2.5,2.5s1.119,2.5,2.5,2.5h61.099
	c-4.244,10.222-6.092,21.209-5.531,32.1h-2.707c-8.585,0-15.569,6.984-15.569,15.569v24.223c0,8.585,6.984,15.569,15.569,15.569
	h32.446c12.926,9.549,28.293,14.328,43.661,14.328c13.597,0,27.185-3.758,39.09-11.231l8.692,8.692
	c0.001,0.001,0.001,0.002,0.002,0.003s0.002,0.001,0.003,0.002l3.206,3.206H325.07c-8.586,0-15.57,6.984-15.57,15.569V280.1
	c0,8.586,6.984,15.57,15.57,15.57h45.864c7.383,0,13.568-5.17,15.16-12.077l26.14,26.14v18.037H99.763V137.848h28.23
	c1.381,0,2.5-1.119,2.5-2.5s-1.119-2.5-2.5-2.5h-30.73c-1.381,0-2.5,1.119-2.5,2.5V330.27c0,1.381,1.119,2.5,2.5,2.5h317.472
	c1.381,0,2.5-1.119,2.5-2.5v-15.537l16.825,16.825v18.224c0,2.895-2.355,5.25-5.25,5.25H83.19c-2.895,0-5.25-2.355-5.25-5.25V330.27
	c0-1.381-1.119-2.5-2.5-2.5s-2.5,1.119-2.5,2.5v19.512c0,5.652,4.598,10.25,10.25,10.25h135.08v43.971l-22.142,1.163
	c-1.379,0.072-2.438,1.248-2.365,2.627c0.069,1.334,1.173,2.369,2.494,2.369c0.044,0,0.089-0.001,0.133-0.004l24.511-1.287
	c1.328-0.069,2.369-1.166,2.369-2.496v-46.343h65.449v46.343c0,1.33,1.041,2.427,2.369,2.496l109.872,5.769
	c0.256,0.014,1.294,1.087,1.294,3.233c0,1.888-0.863,2.995-1.162,3.036H110.897c-0.299-0.041-1.162-1.148-1.162-3.036
	c0-2.146,1.038-3.22,1.293-3.233l44.132-2.316c1.379-0.072,2.438-1.248,2.365-2.627c-0.071-1.378-1.272-2.46-2.627-2.365
	l-44.133,2.316c-3.382,0.178-6.03,3.791-6.03,8.226c0,4.506,2.707,8.036,6.162,8.036h290.195c3.455,0,6.162-3.53,6.162-8.036
	c0-4.435-2.648-8.048-6.031-8.226l-107.504-5.645v-43.971h135.09c5.652,0,10.25-4.598,10.25-10.25v-13.224l7.048,7.048
	c2.485,2.486,5.79,3.855,9.306,3.857c0.002,0,0.003,0,0.005,0c3.514,0,6.815-1.367,9.298-3.85l21.938-21.938
	c5.128-5.128,5.124-13.476-0.008-18.608L477.019,293.441z M379.515,236.476l-8.056,8.056l-3.489-3.489
	c-0.001-0.001-0.002-0.002-0.003-0.003l-5.706-5.707l16.112-16.111l9.198,9.198L379.515,236.476z M371.459,205.238
	c4.477-7.1,7.679-14.886,9.492-23.084c0.361,1.073,0.552,2.207,0.552,3.363v24.223c0,1.576-0.354,3.12-1.019,4.524L371.459,205.238z
	 M412.234,228.656l-3.149-3.149c-4.919-4.919-12.786-5.107-17.948-0.591l-6.98-6.98c1.517-2.449,2.347-5.285,2.347-8.196v-24.223
	c0-4.015-1.563-7.852-4.311-10.735c0.332-2.851,0.521-5.735,0.521-8.649c0-9.869-1.934-19.44-5.617-28.284h35.138V228.656z
	 M428.81,120.591c2.895,0,5.25,2.351,5.25,5.24v124.65l-16.825-16.825v-98.309c0-1.381-1.119-2.5-2.5-2.5h-39.967
	c-2.193-4.311-4.821-8.414-7.865-12.257H428.81z M233.066,220.309c-5.828,0-10.569-4.741-10.569-10.569v-24.223
	c0-5.828,4.741-10.569,10.569-10.569h3.15c1.891,15.794,8.863,31.09,20.958,43.185c0.749,0.749,1.517,1.467,2.29,2.177H233.066z
	 M309.174,234.639c-17.549-0.002-35.104-6.683-48.465-20.042c-26.723-26.725-26.723-70.206,0-96.93
	c12.946-12.945,30.158-20.075,48.465-20.075c18.308,0,35.52,7.13,48.465,20.075c5.511,5.511,9.956,11.8,13.258,18.612
	c0.035,0.086,0.081,0.166,0.125,0.247c4.376,9.125,6.693,19.186,6.693,29.605c0,13.74-4.017,26.863-11.494,38.029
	c-0.018,0.026-0.037,0.05-0.054,0.076c-2.473,3.682-5.321,7.153-8.527,10.36C344.275,227.96,326.728,234.641,309.174,234.639z
	 M358.726,231.798l-6.236-6.236c3.037-2.216,5.943-4.69,8.683-7.43c2.724-2.723,5.198-5.628,7.431-8.678l6.233,6.233
	L358.726,231.798z M381.504,280.1c0,5.828-4.741,10.57-10.569,10.57H325.07c-5.828,0-10.57-4.742-10.57-10.57v-24.222
	c0-5.828,4.742-10.569,10.57-10.569h40.096l2.788,2.789c-2.1,2.396-3.258,5.429-3.258,8.648c0,3.515,1.367,6.817,3.851,9.3
	l12.957,12.957V280.1z"/>
<linearGradient id="SVGID_2_" gradientUnits="userSpaceOnUse" x1="108.6261" y1="-37.3311" x2="544.9625" y2="405.3457">
	<stop  offset="0" style="stop-color:#FEF050"/>
	<stop  offset="0.0348" style="stop-color:#FAE73D"/>
	<stop  offset="0.0935" style="stop-color:#F5DB22"/>
	<stop  offset="0.1536" style="stop-color:#F2D20F"/>
	<stop  offset="0.2152" style="stop-color:#F0CD04"/>
	<stop  offset="0.2809" style="stop-color:#EFCB00"/>
	<stop  offset="0.6685" style="stop-color:#D99544"/>
	<stop  offset="0.8876" style="stop-color:#CD6F3C"/>
	<stop  offset="1" style="stop-color:#C34435"/>
</linearGradient>
<path style="fill:url(#SVGID_2_);" d="M360.499,185.651c0.351-0.926,0.676-1.858,0.974-2.798c0.033-0.104,0.067-0.206,0.1-0.31
	c0.304-0.979,0.587-1.962,0.835-2.953c0.007-0.028,0.015-0.056,0.022-0.083c0.254-1.019,0.48-2.043,0.676-3.072
	c0.04-0.208,0.069-0.42,0.106-0.629c0.133-0.747,0.254-1.495,0.356-2.245c0.059-0.428,0.106-0.858,0.154-1.288
	c0.059-0.53,0.112-1.059,0.156-1.59c0.042-0.506,0.081-1.013,0.109-1.521c0.024-0.444,0.037-0.888,0.051-1.332
	c0.018-0.562,0.04-1.123,0.04-1.686c0-0.11-0.007-0.22-0.007-0.33c-0.007-1.365-0.073-2.732-0.183-4.101
	c-0.03-0.368-0.054-0.736-0.091-1.103c-0.058-0.58-0.131-1.16-0.208-1.74c-0.055-0.419-0.116-0.837-0.181-1.255
	c-0.052-0.336-0.086-0.673-0.145-1.008c-0.015-0.084-0.043-0.164-0.066-0.245c-1.419-7.912-4.573-15.567-9.469-22.35
	c-0.029-0.046-0.061-0.09-0.093-0.134c-1.674-2.304-3.543-4.51-5.62-6.586c-10.374-10.375-24.168-16.089-38.841-16.089
	c-7.7,0-15.153,1.588-22.002,4.584c-0.002,0.001-0.005,0.002-0.007,0.003c-6.198,2.712-11.903,6.574-16.831,11.501
	c-2.052,2.052-3.906,4.247-5.584,6.544c-0.04,0.052-0.081,0.101-0.117,0.156c-8.058,11.117-11.671,24.827-9.991,38.756
	c0.165,1.369,1.408,2.339,2.782,2.183c1.37-0.166,2.348-1.411,2.183-2.782c-1.481-12.276,1.561-24.364,8.421-34.3h82.281
	c3.543,5.148,6.018,10.813,7.411,16.689h-50.682c-10.791,0-19.569,8.778-19.569,19.568v31.635c0,1.985,0.309,3.918,0.882,5.768
	c-5.249-2.402-10.166-5.756-14.482-10.071c-0.977-0.977-2.559-0.977-3.535,0s-0.977,2.56,0,3.535
	c6.472,6.472,14.175,10.974,22.358,13.535c0.041,0.015,0.075,0.044,0.117,0.057c0.206,0.064,0.414,0.119,0.62,0.18
	c0.081,0.024,0.162,0.047,0.242,0.071c5.136,1.509,10.371,2.254,15.558,2.254c10.608,0,21.011-3.085,29.949-8.927
	c0.082-0.054,0.167-0.103,0.249-0.157c0.581-0.384,1.15-0.789,1.718-1.196c0.183-0.131,0.369-0.253,0.551-0.386
	c0.499-0.367,0.986-0.755,1.474-1.141c0.237-0.187,0.479-0.363,0.713-0.554c0.474-0.387,0.936-0.796,1.399-1.201
	c0.235-0.205,0.476-0.399,0.708-0.609c0.688-0.622,1.364-1.264,2.025-1.925c0.745-0.745,1.458-1.51,2.151-2.287
	c0.177-0.199,0.345-0.404,0.519-0.605c0.527-0.608,1.041-1.222,1.537-1.847c0.158-0.2,0.313-0.403,0.468-0.605
	c0.522-0.677,1.025-1.363,1.511-2.058c0.099-0.142,0.199-0.283,0.297-0.426c2.449-3.576,4.427-7.377,5.935-11.321
	C360.456,185.766,360.477,185.708,360.499,185.651z M271.958,132.848c0.616-0.688,1.252-1.363,1.91-2.021
	c4.348-4.348,9.362-7.782,14.805-10.235h41.001c5.443,2.453,10.457,5.887,14.805,10.235c0.659,0.659,1.292,1.335,1.906,2.021
	H271.958z M359.06,166.974c-0.008,0.496-0.012,0.991-0.035,1.486c-0.034,0.725-0.086,1.448-0.152,2.17
	c-0.033,0.367-0.077,0.733-0.117,1.099c-0.071,0.63-0.146,1.259-0.241,1.884c-0.04,0.269-0.091,0.536-0.135,0.804
	c-0.109,0.648-0.226,1.294-0.36,1.937c-0.045,0.219-0.095,0.437-0.143,0.655c-0.162,0.726-0.337,1.448-0.531,2.166
	c-0.035,0.131-0.07,0.262-0.106,0.393c-1.25,4.479-3.12,8.777-5.57,12.76c-0.041,0.067-0.083,0.133-0.125,0.2
	c-0.434,0.698-0.887,1.384-1.357,2.061c-0.09,0.129-0.178,0.259-0.27,0.387c-0.43,0.609-0.879,1.207-1.338,1.798
	c-0.127,0.163-0.25,0.328-0.379,0.49c-0.449,0.564-0.917,1.115-1.392,1.66c-0.142,0.163-0.277,0.33-0.421,0.491
	c-0.616,0.688-1.25,1.364-1.907,2.021c-0.54,0.54-1.093,1.059-1.651,1.569c-0.143,0.131-0.286,0.26-0.43,0.389
	c-0.556,0.497-1.118,0.984-1.69,1.451c-0.006,0.005-0.012,0.01-0.019,0.015c-0.587,0.479-1.186,0.937-1.79,1.385
	c-0.134,0.1-0.269,0.198-0.404,0.297c-1.257,0.913-2.546,1.764-3.865,2.545c-0.053,0.032-0.107,0.063-0.161,0.095
	c-12,7.048-26.336,8.659-39.406,4.832c-1.702-2.447-2.597-5.292-2.597-8.275v-31.635c0-8.033,6.536-14.568,14.569-14.568h51.598
	c0.05,0.379,0.095,0.758,0.136,1.137c0.037,0.34,0.075,0.681,0.105,1.021c0.047,0.527,0.083,1.054,0.113,1.583
	c0.02,0.344,0.034,0.689,0.046,1.033c0.019,0.521,0.034,1.042,0.037,1.563C359.075,166.242,359.066,166.607,359.06,166.974z"/>
<linearGradient id="SVGID_3_" gradientUnits="userSpaceOnUse" x1="19.2427" y1="50.7721" x2="455.579" y2="493.4489">
	<stop  offset="0" style="stop-color:#FEF050"/>
	<stop  offset="0.0348" style="stop-color:#FAE73D"/>
	<stop  offset="0.0935" style="stop-color:#F5DB22"/>
	<stop  offset="0.1536" style="stop-color:#F2D20F"/>
	<stop  offset="0.2152" style="stop-color:#F0CD04"/>
	<stop  offset="0.2809" style="stop-color:#EFCB00"/>
	<stop  offset="0.6685" style="stop-color:#D99544"/>
	<stop  offset="0.8876" style="stop-color:#CD6F3C"/>
	<stop  offset="1" style="stop-color:#C34435"/>
</linearGradient>
<path style="fill:url(#SVGID_3_);" d="M202.497,185.517c0-8.585-6.984-15.569-15.57-15.569h-45.864
	c-8.585,0-15.569,6.984-15.569,15.569v24.223c0,8.585,6.984,15.569,15.569,15.569h45.864c8.586,0,15.57-6.984,15.57-15.569V185.517z
	 M197.497,209.739c0,5.828-4.742,10.569-10.57,10.569h-45.864c-5.828,0-10.569-4.741-10.569-10.569v-24.223
	c0-5.828,4.741-10.569,10.569-10.569h45.864c5.828,0,10.57,4.741,10.57,10.569V209.739z"/>
<linearGradient id="SVGID_4_" gradientUnits="userSpaceOnUse" x1="-15.9343" y1="85.4453" x2="420.4021" y2="528.1221">
	<stop  offset="0" style="stop-color:#FEF050"/>
	<stop  offset="0.0348" style="stop-color:#FAE73D"/>
	<stop  offset="0.0935" style="stop-color:#F5DB22"/>
	<stop  offset="0.1536" style="stop-color:#F2D20F"/>
	<stop  offset="0.2152" style="stop-color:#F0CD04"/>
	<stop  offset="0.2809" style="stop-color:#EFCB00"/>
	<stop  offset="0.6685" style="stop-color:#D99544"/>
	<stop  offset="0.8876" style="stop-color:#CD6F3C"/>
	<stop  offset="1" style="stop-color:#C34435"/>
</linearGradient>
<path style="fill:url(#SVGID_4_);" d="M127.993,261.108c-1.381,0-2.5,1.119-2.5,2.5V280.1c0,8.586,6.984,15.57,15.569,15.57h45.864
	c8.586,0,15.57-6.984,15.57-15.57v-24.222c0-8.585-6.984-15.569-15.57-15.569h-39.311c-1.381,0-2.5,1.119-2.5,2.5s1.119,2.5,2.5,2.5
	h39.311c5.828,0,10.57,4.741,10.57,10.569V280.1c0,5.828-4.742,10.57-10.57,10.57h-45.864c-5.828,0-10.569-4.742-10.569-10.57
	v-16.491C130.493,262.228,129.374,261.108,127.993,261.108z"/>
<linearGradient id="SVGID_5_" gradientUnits="userSpaceOnUse" x1="30.731" y1="39.4483" x2="467.0674" y2="482.1251">
	<stop  offset="0" style="stop-color:#FEF050"/>
	<stop  offset="0.0348" style="stop-color:#FAE73D"/>
	<stop  offset="0.0935" style="stop-color:#F5DB22"/>
	<stop  offset="0.1536" style="stop-color:#F2D20F"/>
	<stop  offset="0.2152" style="stop-color:#F0CD04"/>
	<stop  offset="0.2809" style="stop-color:#EFCB00"/>
	<stop  offset="0.6685" style="stop-color:#D99544"/>
	<stop  offset="0.8876" style="stop-color:#CD6F3C"/>
	<stop  offset="1" style="stop-color:#C34435"/>
</linearGradient>
<path style="fill:url(#SVGID_5_);" d="M278.931,295.67c8.585,0,15.569-6.984,15.569-15.57v-24.222
	c0-8.585-6.984-15.569-15.569-15.569h-45.864c-8.585,0-15.569,6.984-15.569,15.569V280.1c0,8.586,6.984,15.57,15.569,15.57H278.931z
	 M222.497,280.1v-24.222c0-5.828,4.741-10.569,10.569-10.569h45.864c5.828,0,10.569,4.741,10.569,10.569V280.1
	c0,5.828-4.741,10.57-10.569,10.57h-45.864C227.238,290.67,222.497,285.928,222.497,280.1z"/>
</svg>
